<svg width="238" height="35" viewBox="0 0 238 35" fill="none" xmlns="http://www.w3.org/2000/svg">
<path d="M15.1335 8.66761C15.0483 7.73011 14.669 7.00142 13.9957 6.48153C13.331 5.95313 12.3807 5.68892 11.1449 5.68892C10.3267 5.68892 9.64489 5.79545 9.09943 6.00852C8.55398 6.22159 8.14489 6.51563 7.87216 6.89062C7.59943 7.2571 7.45881 7.67898 7.45028 8.15625C7.43324 8.54829 7.50994 8.89346 7.6804 9.19176C7.85938 9.49006 8.11506 9.75426 8.44744 9.98438C8.78835 10.206 9.19744 10.402 9.67472 10.5724C10.152 10.7429 10.6889 10.892 11.2855 11.0199L13.5355 11.5312C14.831 11.8125 15.973 12.1875 16.9616 12.6562C17.9588 13.125 18.794 13.6832 19.4673 14.331C20.1491 14.9787 20.6648 15.7244 21.0142 16.5682C21.3636 17.4119 21.5426 18.358 21.5511 19.4062C21.5426 21.0597 21.125 22.4787 20.2983 23.6634C19.4716 24.848 18.2827 25.7557 16.7315 26.3864C15.1889 27.017 13.3267 27.3324 11.1449 27.3324C8.95455 27.3324 7.04545 27.0043 5.41761 26.348C3.78977 25.6918 2.52415 24.6946 1.62074 23.3565C0.71733 22.0185 0.252841 20.3267 0.227273 18.2812H6.28693C6.33807 19.125 6.56392 19.8281 6.96449 20.3906C7.36506 20.9531 7.91477 21.3793 8.61364 21.669C9.32102 21.9588 10.1392 22.1037 11.0682 22.1037C11.9205 22.1037 12.6449 21.9886 13.2415 21.7585C13.8466 21.5284 14.3111 21.2088 14.6349 20.7997C14.9588 20.3906 15.125 19.9219 15.1335 19.3935C15.125 18.8991 14.9716 18.4773 14.6733 18.1278C14.375 17.7699 13.9148 17.4631 13.2926 17.2074C12.679 16.9432 11.8949 16.7003 10.9403 16.4787L8.20455 15.8395C5.9375 15.3196 4.15199 14.4801 2.84801 13.321C1.54403 12.1534 0.896307 10.5767 0.90483 8.59091C0.896307 6.97159 1.33097 5.55256 2.20881 4.33381C3.08665 3.11506 4.30114 2.16477 5.85227 1.48295C7.40341 0.801136 9.17188 0.460226 11.1577 0.460226C13.1861 0.460226 14.946 0.805397 16.4375 1.49574C17.9375 2.17756 19.1009 3.13636 19.9276 4.37216C20.7543 5.60795 21.1761 7.03977 21.1932 8.66761H15.1335ZM35.831 7.36364V11.9659H23.4432V7.36364H35.831ZM26.0384 2.65909H32.2898V20.8253C32.2898 21.2088 32.3494 21.5199 32.4688 21.7585C32.5966 21.9886 32.7798 22.1548 33.0185 22.2571C33.2571 22.3509 33.5426 22.3977 33.875 22.3977C34.1136 22.3977 34.3651 22.3764 34.6293 22.3338C34.902 22.2827 35.1065 22.2401 35.2429 22.206L36.1889 26.7188C35.8906 26.804 35.4688 26.9105 34.9233 27.0384C34.3864 27.1662 33.7429 27.2472 32.9929 27.2812C31.527 27.3494 30.2699 27.179 29.2216 26.7699C28.1818 26.3523 27.3849 25.7045 26.831 24.8267C26.2855 23.9489 26.0213 22.8452 26.0384 21.5156V2.65909ZM47.9886 27.3707C45.9347 27.3707 44.1619 26.9659 42.6705 26.1562C41.1875 25.3381 40.0455 24.1747 39.2443 22.6662C38.4517 21.1491 38.0554 19.3466 38.0554 17.2585C38.0554 15.2301 38.456 13.4574 39.2571 11.9403C40.0582 10.4148 41.1875 9.23011 42.6449 8.38636C44.1023 7.53409 45.8196 7.10795 47.7969 7.10795C49.1946 7.10795 50.473 7.32528 51.6321 7.75994C52.7912 8.1946 53.7926 8.83807 54.6364 9.69034C55.4801 10.5426 56.1364 11.5952 56.6051 12.848C57.0739 14.0923 57.3082 15.5199 57.3082 17.1307V18.6903H40.2415V15.0597H51.4915C51.483 14.3949 51.3253 13.8026 51.0185 13.2827C50.7116 12.7628 50.2898 12.358 49.7528 12.0682C49.2244 11.7699 48.6151 11.6207 47.9247 11.6207C47.2259 11.6207 46.5994 11.7784 46.0455 12.0938C45.4915 12.4006 45.0526 12.8224 44.7287 13.3594C44.4048 13.8878 44.2344 14.4886 44.2173 15.1619V18.8565C44.2173 19.6577 44.375 20.3608 44.6903 20.9659C45.0057 21.5625 45.4531 22.027 46.0327 22.3594C46.6122 22.6918 47.3026 22.858 48.1037 22.858C48.6577 22.858 49.1605 22.7812 49.6122 22.6278C50.0639 22.4744 50.4517 22.2486 50.7756 21.9503C51.0994 21.652 51.3423 21.2855 51.5043 20.8509L57.2443 21.017C57.0057 22.304 56.4815 23.4247 55.6719 24.3793C54.8707 25.3253 53.8182 26.0625 52.5142 26.5909C51.2102 27.1108 49.7017 27.3707 47.9886 27.3707ZM60.5011 34.3636V7.36364H66.6886V10.7259H66.8803C67.136 10.1293 67.4982 9.55398 67.967 9C68.4442 8.44602 69.0494 7.99432 69.7823 7.64489C70.5238 7.28693 71.4102 7.10795 72.4414 7.10795C73.805 7.10795 75.0792 7.46591 76.2639 8.18182C77.457 8.89773 78.4201 10.0014 79.1531 11.4929C79.886 12.9844 80.2525 14.8849 80.2525 17.1946C80.2525 19.419 79.8988 21.2812 79.1914 22.7812C78.4925 24.2812 77.5465 25.4062 76.3533 26.1562C75.1687 26.9062 73.8519 27.2812 72.4031 27.2812C71.4144 27.2812 70.5579 27.1193 69.8335 26.7955C69.109 26.4716 68.4996 26.0455 68.0053 25.517C67.5195 24.9886 67.1445 24.4219 66.8803 23.8168H66.7525V34.3636H60.5011ZM66.6246 17.1818C66.6246 18.2386 66.7653 19.1591 67.0465 19.9432C67.3363 20.7273 67.7496 21.3366 68.2866 21.7713C68.832 22.1974 69.484 22.4105 70.2425 22.4105C71.0096 22.4105 71.6616 22.1974 72.1985 21.7713C72.7354 21.3366 73.1403 20.7273 73.413 19.9432C73.6942 19.1591 73.8349 18.2386 73.8349 17.1818C73.8349 16.125 73.6942 15.2088 73.413 14.4332C73.1403 13.6577 72.7354 13.0568 72.1985 12.6307C71.6701 12.2045 71.0181 11.9915 70.2425 11.9915C69.4755 11.9915 68.8235 12.2003 68.2866 12.6179C67.7496 13.0355 67.3363 13.6321 67.0465 14.4077C66.7653 15.1832 66.6246 16.108 66.6246 17.1818ZM97.6804 8.66761C97.5952 7.73011 97.2159 7.00142 96.5426 6.48153C95.8778 5.95313 94.9276 5.68892 93.6918 5.68892C92.8736 5.68892 92.1918 5.79545 91.6463 6.00852C91.1009 6.22159 90.6918 6.51563 90.419 6.89062C90.1463 7.2571 90.0057 7.67898 89.9972 8.15625C89.9801 8.54829 90.0568 8.89346 90.2273 9.19176C90.4063 9.49006 90.6619 9.75426 90.9943 9.98438C91.3352 10.206 91.7443 10.402 92.2216 10.5724C92.6989 10.7429 93.2358 10.892 93.8324 11.0199L96.0824 11.5312C97.3778 11.8125 98.5199 12.1875 99.5085 12.6562C100.506 13.125 101.341 13.6832 102.014 14.331C102.696 14.9787 103.212 15.7244 103.561 16.5682C103.911 17.4119 104.089 18.358 104.098 19.4062C104.089 21.0597 103.672 22.4787 102.845 23.6634C102.018 24.848 100.83 25.7557 99.2784 26.3864C97.7358 27.017 95.8736 27.3324 93.6918 27.3324C91.5014 27.3324 89.5923 27.0043 87.9645 26.348C86.3366 25.6918 85.071 24.6946 84.1676 23.3565C83.2642 22.0185 82.7997 20.3267 82.7741 18.2812H88.8338C88.8849 19.125 89.1108 19.8281 89.5114 20.3906C89.9119 20.9531 90.4616 21.3793 91.1605 21.669C91.8679 21.9588 92.6861 22.1037 93.6151 22.1037C94.4673 22.1037 95.1918 21.9886 95.7884 21.7585C96.3935 21.5284 96.858 21.2088 97.1818 20.7997C97.5057 20.3906 97.6719 19.9219 97.6804 19.3935C97.6719 18.8991 97.5185 18.4773 97.2202 18.1278C96.9219 17.7699 96.4616 17.4631 95.8395 17.2074C95.2259 16.9432 94.4418 16.7003 93.4872 16.4787L90.7514 15.8395C88.4844 15.3196 86.6989 14.4801 85.3949 13.321C84.0909 12.1534 83.4432 10.5767 83.4517 8.59091C83.4432 6.97159 83.8778 5.55256 84.7557 4.33381C85.6335 3.11506 86.848 2.16477 88.3991 1.48295C89.9503 0.801136 91.7188 0.460226 93.7045 0.460226C95.733 0.460226 97.4929 0.805397 98.9844 1.49574C100.484 2.17756 101.648 3.13636 102.474 4.37216C103.301 5.60795 103.723 7.03977 103.74 8.66761H97.6804ZM111.116 34.3636C110.366 34.3636 109.659 34.304 108.994 34.1847C108.33 34.0739 107.759 33.9247 107.281 33.7372L108.662 29.1989C109.276 29.4034 109.83 29.5227 110.324 29.5568C110.827 29.5909 111.257 29.5099 111.615 29.3139C111.982 29.1264 112.263 28.7898 112.459 28.304L112.702 27.7159L105.722 7.36364H112.267L115.885 21.375H116.089L119.759 7.36364H126.342L118.94 28.8793C118.582 29.9531 118.075 30.8991 117.419 31.7173C116.771 32.544 115.932 33.1918 114.901 33.6605C113.878 34.1293 112.616 34.3636 111.116 34.3636ZM134.991 15.8011V27H128.739V7.36364H134.684V10.9688H134.901C135.336 9.76705 136.077 8.82528 137.126 8.14347C138.174 7.45312 139.423 7.10795 140.871 7.10795C142.252 7.10795 143.45 7.41903 144.464 8.04119C145.487 8.65483 146.279 9.51562 146.842 10.6236C147.413 11.723 147.694 13.0099 147.685 14.4844V27H141.434V15.7116C141.442 14.6207 141.165 13.7685 140.603 13.1548C140.049 12.5412 139.278 12.2344 138.289 12.2344C137.633 12.2344 137.053 12.3793 136.55 12.669C136.056 12.9503 135.673 13.3551 135.4 13.8835C135.136 14.4119 134.999 15.0511 134.991 15.8011ZM160.722 27.3707C158.651 27.3707 156.874 26.9446 155.391 26.0923C153.917 25.2401 152.783 24.0554 151.99 22.5384C151.198 21.0128 150.801 19.2486 150.801 17.2457C150.801 15.2344 151.198 13.4702 151.99 11.9531C152.792 10.4276 153.929 9.23864 155.404 8.38636C156.887 7.53409 158.655 7.10795 160.709 7.10795C162.525 7.10795 164.105 7.43608 165.452 8.09233C166.807 8.74858 167.864 9.67756 168.623 10.8793C169.39 12.0724 169.794 13.4744 169.837 15.0852H163.995C163.875 14.0795 163.534 13.2912 162.972 12.7202C162.418 12.1491 161.694 11.8636 160.799 11.8636C160.074 11.8636 159.439 12.0682 158.894 12.4773C158.348 12.8778 157.922 13.4744 157.615 14.267C157.317 15.0511 157.168 16.0227 157.168 17.1818C157.168 18.3409 157.317 19.321 157.615 20.1222C157.922 20.9148 158.348 21.5156 158.894 21.9247C159.439 22.3253 160.074 22.5256 160.799 22.5256C161.378 22.5256 161.89 22.402 162.333 22.1548C162.784 21.9077 163.155 21.5455 163.445 21.0682C163.735 20.5824 163.918 19.9943 163.995 19.304H169.837C169.777 20.9233 169.373 22.3381 168.623 23.5483C167.881 24.7585 166.837 25.7003 165.49 26.3736C164.152 27.0384 162.563 27.3707 160.722 27.3707ZM204.536 10.304H198.144C198.059 9.64773 197.884 9.0554 197.62 8.52699C197.356 7.99858 197.006 7.54687 196.572 7.17188C196.137 6.79688 195.621 6.51136 195.025 6.31534C194.437 6.11079 193.785 6.00852 193.069 6.00852C191.799 6.00852 190.704 6.3196 189.783 6.94176C188.871 7.56392 188.168 8.46307 187.674 9.6392C187.188 10.8153 186.945 12.2386 186.945 13.9091C186.945 15.6477 187.192 17.1051 187.687 18.2812C188.19 19.4489 188.893 20.331 189.796 20.9276C190.708 21.5156 191.786 21.8097 193.031 21.8097C193.729 21.8097 194.364 21.7202 194.935 21.5412C195.515 21.3622 196.022 21.1023 196.457 20.7614C196.9 20.4119 197.262 19.9901 197.543 19.4957C197.833 18.9929 198.033 18.4261 198.144 17.7955L204.536 17.8338C204.425 18.9929 204.089 20.1349 203.526 21.2599C202.972 22.3849 202.21 23.4119 201.238 24.3409C200.266 25.2614 199.082 25.9943 197.684 26.5398C196.295 27.0852 194.701 27.358 192.903 27.358C190.533 27.358 188.411 26.8381 186.536 25.7983C184.67 24.75 183.195 23.2244 182.113 21.2216C181.031 19.2187 180.489 16.7812 180.489 13.9091C180.489 11.0284 181.039 8.58665 182.138 6.58381C183.238 4.58097 184.725 3.05966 186.6 2.01989C188.475 0.980113 190.576 0.460226 192.903 0.460226C194.488 0.460226 195.954 0.681818 197.3 1.125C198.647 1.55966 199.832 2.19886 200.854 3.04261C201.877 3.87784 202.708 4.90483 203.347 6.12358C203.987 7.34233 204.383 8.7358 204.536 10.304ZM217.324 27.3707C215.261 27.3707 213.488 26.9489 212.005 26.1051C210.531 25.2528 209.393 24.0682 208.592 22.5511C207.799 21.0256 207.403 19.2571 207.403 17.2457C207.403 15.2259 207.799 13.4574 208.592 11.9403C209.393 10.4148 210.531 9.23011 212.005 8.38636C213.488 7.53409 215.261 7.10795 217.324 7.10795C219.386 7.10795 221.154 7.53409 222.629 8.38636C224.112 9.23011 225.25 10.4148 226.042 11.9403C226.843 13.4574 227.244 15.2259 227.244 17.2457C227.244 19.2571 226.843 21.0256 226.042 22.5511C225.25 24.0682 224.112 25.2528 222.629 26.1051C221.154 26.9489 219.386 27.3707 217.324 27.3707ZM217.362 22.6534C218.112 22.6534 218.747 22.4233 219.267 21.9631C219.787 21.5028 220.183 20.8636 220.456 20.0455C220.737 19.2273 220.877 18.2812 220.877 17.2074C220.877 16.1165 220.737 15.1619 220.456 14.3438C220.183 13.5256 219.787 12.8864 219.267 12.4261C218.747 11.9659 218.112 11.7358 217.362 11.7358C216.586 11.7358 215.93 11.9659 215.393 12.4261C214.865 12.8864 214.46 13.5256 214.179 14.3438C213.906 15.1619 213.77 16.1165 213.77 17.2074C213.77 18.2812 213.906 19.2273 214.179 20.0455C214.46 20.8636 214.865 21.5028 215.393 21.9631C215.93 22.4233 216.586 22.6534 217.362 22.6534ZM233.962 27.3707C233.042 27.3707 232.253 27.0469 231.597 26.3991C230.949 25.7514 230.63 24.9673 230.638 24.0469C230.63 23.1435 230.949 22.3722 231.597 21.733C232.253 21.0852 233.042 20.7614 233.962 20.7614C234.831 20.7614 235.598 21.0852 236.263 21.733C236.936 22.3722 237.277 23.1435 237.286 24.0469C237.277 24.6605 237.115 25.2187 236.8 25.7216C236.493 26.2244 236.088 26.625 235.586 26.9233C235.091 27.2216 234.55 27.3707 233.962 27.3707Z" fill="#EEEBDD"/>
</svg>
