<svg width="48" height="48" viewBox="0 0 48 48" fill="none" xmlns="http://www.w3.org/2000/svg">
<g clip-path="url(#clip0_63_41)">
<path fill-rule="evenodd" clip-rule="evenodd" d="M39.5538 8.85999C40.048 8.65197 40.589 8.58023 41.1204 8.65223C41.6517 8.72422 42.1541 8.93733 42.5752 9.26936C42.9962 9.6014 43.3206 10.0402 43.5145 10.5402C43.7085 11.0401 43.7648 11.5829 43.6778 12.112L39.1418 39.626C38.7018 42.28 35.7898 43.802 33.3558 42.48C31.3198 41.374 28.2958 39.67 25.5758 37.892C24.2158 37.002 20.0498 34.152 20.5618 32.124C21.0018 30.39 28.0018 23.874 32.0018 20C33.5718 18.478 32.8558 17.6 31.0018 19C26.3978 22.476 19.0058 27.762 16.5618 29.25C14.4058 30.562 13.2818 30.786 11.9378 30.562C9.4858 30.154 7.2118 29.522 5.3558 28.752C2.8478 27.712 2.9698 24.264 5.3538 23.26L39.5538 8.85999Z" fill="#EEEBDD"/>
</g>
<defs>
<clipPath id="clip0_63_41">
<rect width="48" height="48" fill="white"/>
</clipPath>
</defs>
</svg>
